<svg width="337" height="347" viewBox="0 0 337 347" fill="none" xmlns="http://www.w3.org/2000/svg">
<path opacity="0.27" d="M335.794 287.765C327.199 324.061 253.263 348.857 194.1 338.591C151.579 331.208 152.336 311.901 87.3178 294.698C44.4628 283.357 22.7593 286.09 11.3392 267.747C1.87207 252.537 6.65357 234.333 16.2166 197.928C26.6552 158.196 31.9588 138.009 50.3579 124.514C73.6573 107.426 91.2633 120.657 117.867 100.385C137.608 85.3429 133.071 74.1277 148.671 64.7035C177.231 47.4511 229.881 62.4168 256.736 94.7374C278.971 121.497 264.782 137.596 284.714 189.713C308.82 252.738 341.983 261.637 335.794 287.765Z" fill="#424242"/>
<path d="M329.846 287.765C321.251 324.061 247.315 348.857 188.152 338.591C145.631 331.208 146.388 311.901 81.3699 294.698C38.5148 283.357 16.8113 286.09 5.39124 267.747C-4.07593 252.537 0.705582 234.333 10.2686 197.928C20.7073 158.196 26.0108 138.009 44.4099 124.514C67.7094 107.426 85.3153 120.657 111.919 100.385C131.66 85.3429 127.123 74.1277 142.723 64.7035C171.283 47.4511 223.933 62.4168 250.788 94.7374C273.023 121.497 258.834 137.596 278.766 189.713C302.872 252.738 336.035 261.637 329.846 287.765Z" fill="white"/>
<path d="M136.409 107.051L142.338 108.64L140.776 114.469L134.847 112.88L136.409 107.051Z" fill="#FECF05"/>
<path d="M158.626 97.5204C158.648 97.5262 158.67 97.531 158.692 97.535C163.077 98.3087 167.783 96.8065 171.944 93.3053C176.396 89.5605 179.805 83.9269 181.543 77.4424C181.685 76.9123 181.369 76.3657 180.839 76.2237L171.728 73.7826C171.339 73.6782 170.934 73.8898 170.798 74.2694C170.403 75.369 169.983 76.4658 169.551 77.529C169.468 77.735 169.477 77.967 169.576 78.166C169.675 78.3651 169.855 78.5121 170.07 78.5697L174.413 79.7334C174.652 79.7974 174.85 79.9625 174.956 80.1863C175.061 80.4095 175.063 80.6675 174.961 80.8925C173.219 84.7274 170.808 88.1708 168.51 90.1033C165.933 92.2721 163.426 93.5066 161.26 93.6733C161.05 93.6896 160.856 93.7901 160.722 93.9522C160.315 94.4447 159.956 94.7223 159.577 95.0163C159.231 95.2842 158.874 95.5613 158.458 96.023C158.39 96.0986 158.322 96.1737 158.254 96.2486C158.063 96.4575 158.001 96.7536 158.093 97.0212C158.177 97.2675 158.378 97.4538 158.626 97.5204Z" fill="#F8B816"/>
<path d="M128.953 89.5697C129.201 89.6363 129.469 89.5754 129.665 89.4043C129.877 89.2179 129.972 88.9306 129.911 88.6544C129.889 88.5553 129.868 88.4562 129.847 88.3567C129.718 87.7497 129.547 87.3309 129.381 86.9256C129.2 86.4815 129.028 86.062 128.922 85.4318C128.887 85.2243 128.769 85.0402 128.595 84.9211C126.803 83.694 125.249 81.3714 124.101 78.2045C123.078 75.382 122.711 71.1943 123.12 67.0025C123.144 66.7563 123.275 66.5342 123.478 66.3932C123.681 66.2527 123.935 66.2085 124.175 66.2725L128.518 67.4363C128.733 67.4939 128.962 67.4565 129.147 67.3336C129.332 67.2107 129.456 67.0144 129.487 66.7941C129.644 65.6576 129.83 64.4981 130.037 63.3481C130.109 62.9513 129.865 62.5657 129.475 62.4612L120.365 60.0202C119.835 59.8781 119.288 60.1936 119.146 60.7236C117.408 67.2084 117.543 73.7914 119.526 79.2602C121.379 84.373 124.704 88.027 128.888 89.5492C128.91 89.557 128.931 89.5639 128.953 89.5697Z" fill="#F8B816"/>
<path d="M130.677 56.979C130.954 56.8153 131.285 56.77 131.596 56.8533L172.695 67.8657C173.005 67.9489 173.269 68.1537 173.427 68.434C173.586 68.7145 173.624 69.0464 173.534 69.3551C170.351 80.3037 165.308 89.9872 159.335 96.6222C155.351 101.047 151.198 103.836 147.198 104.849L135.185 101.63C132.228 98.7527 130.025 94.2613 128.787 88.4369C126.932 79.7043 127.407 68.7969 130.124 57.7235C130.201 57.4109 130.4 57.1429 130.677 56.979Z" fill="#FECF05"/>
<path opacity="0.1" d="M156.233 95.791C162.206 89.156 167.249 79.4726 170.432 68.5239C170.522 68.2152 170.484 67.8834 170.325 67.6028C170.167 67.3225 169.903 67.1178 169.593 67.0346L172.695 67.8657C173.005 67.9489 173.269 68.1537 173.427 68.434C173.586 68.7145 173.624 69.0464 173.534 69.3551C170.351 80.3037 165.308 89.9872 159.335 96.6222C155.351 101.047 151.198 103.836 147.198 104.849L144.096 104.018C148.096 103.004 152.249 100.216 156.233 95.791Z" fill="black"/>
<path d="M129.707 116.899L130.868 112.564C131.025 111.981 131.624 111.636 132.207 111.792L144.697 115.139C145.28 115.295 145.626 115.894 145.47 116.477L144.309 120.811L129.707 116.899Z" fill="#F8B816"/>
<path opacity="0.1" d="M141.743 114.347L144.697 115.139C145.28 115.295 145.626 115.894 145.47 116.477L144.309 120.811L141.354 120.02L142.515 115.685C142.672 115.102 142.326 114.503 141.743 114.347Z" fill="black"/>
<path d="M121.187 129.802L124.889 115.986C124.999 115.574 125.426 115.327 125.839 115.438L148.39 121.48C148.802 121.591 149.049 122.018 148.938 122.43L145.236 136.246L121.187 129.802Z" fill="#A67C52"/>
<path d="M126.787 126.509C126.721 126.756 126.869 127.013 127.116 127.079L141.463 130.923C141.71 130.989 141.967 130.841 142.033 130.594L143.531 125.003C143.597 124.756 143.449 124.5 143.202 124.433L128.855 120.589C128.608 120.523 128.351 120.671 128.285 120.918L126.787 126.509Z" fill="#FECF05"/>
<path opacity="0.1" d="M138.307 129.596L139.805 124.005C139.871 123.758 139.723 123.501 139.476 123.435L143.202 124.433C143.449 124.5 143.597 124.756 143.531 125.003L142.033 130.594C141.967 130.841 141.71 130.99 141.463 130.923L137.737 129.925C137.984 129.991 138.24 129.843 138.307 129.596Z" fill="black"/>
<path d="M115.65 131.567C115.54 131.979 115.787 132.406 116.199 132.516L148.198 141.091C148.61 141.201 149.038 140.954 149.148 140.542L149.87 137.85C149.98 137.438 149.733 137.011 149.321 136.901L117.322 128.326C116.909 128.216 116.482 128.463 116.372 128.875L115.65 131.567Z" fill="#8C6239"/>
<path opacity="0.1" d="M145.438 139.548L146.159 136.856C146.269 136.444 146.023 136.017 145.61 135.906L149.321 136.901C149.733 137.011 149.98 137.438 149.87 137.85L149.148 140.542C149.038 140.954 148.61 141.201 148.198 141.091L144.488 140.096C144.9 140.207 145.327 139.96 145.438 139.548Z" fill="black"/>
<path d="M147.85 104.706L146.632 109.251C146.512 109.698 146.049 109.965 145.602 109.846L134.07 106.756C133.624 106.636 133.356 106.173 133.476 105.726L134.693 101.181L147.85 104.706Z" fill="#F8B816"/>
<path opacity="0.1" d="M143.318 108.364L144.536 103.818L147.85 104.706L146.632 109.251C146.512 109.698 146.049 109.965 145.602 109.846L142.289 108.958C142.736 109.077 143.199 108.81 143.318 108.364Z" fill="black"/>
<path d="M144.186 92.0647C138.069 90.4255 134.438 84.1402 136.076 78.026C137.714 71.9119 144.002 68.2842 150.119 69.9233C156.236 71.5624 159.867 77.8477 158.229 83.9619C156.591 90.0761 150.304 93.7038 144.186 92.0647Z" fill="#F8B816"/>
<path d="M142.935 85.19C143.04 85.218 143.149 85.2274 143.26 85.2168L146.095 84.9401L148.413 86.5973C148.503 86.6617 148.603 86.7085 148.707 86.7364C148.89 86.7855 149.087 86.7769 149.27 86.7071C149.556 86.5974 149.768 86.3513 149.834 86.0523L150.446 83.2714L152.739 81.5806C152.985 81.3988 153.124 81.1054 153.108 80.7995C153.092 80.4937 152.923 80.2164 152.659 80.0612L150.202 78.6191L149.301 75.9172C149.204 75.6265 148.968 75.404 148.672 75.3246C148.376 75.2454 148.06 75.3199 147.831 75.523L145.7 77.4126L142.851 77.4332C142.545 77.4356 142.26 77.5913 142.093 77.8482C141.926 78.1049 141.9 78.4284 142.022 78.7092L143.162 81.3195L142.302 84.0342C142.21 84.3264 142.27 84.6451 142.463 84.8831C142.586 85.035 142.752 85.1409 142.935 85.19Z" fill="white"/>
<path d="M156.372 80.9064L158.607 81.5053C158.574 82.2511 158.465 83.0036 158.279 83.7548L155.788 83.0874C155.186 82.926 154.828 82.307 154.99 81.7047C155.151 81.1025 155.77 80.745 156.372 80.9064Z" fill="#A67C52"/>
<path d="M155.524 84.0727L157.99 84.7334C157.737 85.4695 157.415 86.1649 157.032 86.8144L154.94 86.2537C154.338 86.0923 153.98 85.4733 154.142 84.871C154.303 84.2688 154.922 83.9113 155.524 84.0727Z" fill="#A67C52"/>
<path d="M136.136 77.8215C136.35 77.0777 136.633 76.3719 136.977 75.7091L139.343 76.3433C139.946 76.5047 140.303 77.1237 140.142 77.726C139.98 78.3282 139.361 78.6857 138.759 78.5243L136.136 77.8215Z" fill="#A67C52"/>
<path d="M138.495 79.5098C139.098 79.6712 139.455 80.2903 139.293 80.8925C139.132 81.4947 138.513 81.8522 137.911 81.6908L135.686 81.0947C135.68 80.3411 135.749 79.5779 135.898 78.8138L138.495 79.5098Z" fill="#A67C52"/>
<path d="M199.985 89.3909L183.744 133.934C183.744 133.934 196.324 125.125 214.108 92.3087L199.985 89.3909Z" fill="#26DBB0"/>
<path d="M127.764 0.376343L141.52 1.45358C141.52 1.45358 147.69 43.8031 121.687 61.0224C121.687 61.0224 138.513 12.3483 127.764 0.376343Z" fill="#FFC75A"/>
<path d="M79.3938 46.668L90.5363 38.9521L104.25 82.9505L79.3938 46.668Z" fill="#ED6F27"/>
<path d="M66.8105 99.4396L107.66 123.506C107.66 123.506 101.286 109.535 72.2463 86.0798L66.8105 99.4396Z" fill="#26DBB0"/>
<path d="M171.385 54.3805L182.528 46.668L196.241 90.6631L171.385 54.3805Z" fill="#ED6F27"/>
<path d="M230.568 52.6589L244.301 53.9906C244.301 53.9906 249.684 96.4492 223.364 113.183C223.368 113.183 241.096 64.8291 230.568 52.6589Z" fill="#FFC75A"/>
<path d="M26.2224 126.741L25.8159 113.196L70.1877 125.634L26.2224 126.741Z" fill="#ED6F27"/>
<path d="M256.164 95.8246L269.061 99.9782L242.474 137.619L256.164 95.8246Z" fill="#ED6F27"/>
<path d="M267.786 343.385H217.089C213.266 343.385 210.167 340.286 210.167 336.463V312.998C210.167 295.174 224.617 280.727 242.437 280.727C260.262 280.727 274.708 295.177 274.708 312.998V336.463C274.712 340.286 271.612 343.385 267.786 343.385Z" fill="#00D8C0"/>
<path d="M242.441 293.902C236.054 293.902 230.875 288.724 230.875 282.336V270.771H254.003V282.336C254.003 288.727 248.825 293.902 242.441 293.902Z" fill="#C18A6B"/>
<path d="M196.007 236.487C199.08 259.261 215.351 276.431 234.55 278.44C251.769 280.244 267.237 269.422 274.821 255.312C286.215 234.105 280.27 204.593 261.233 190.232C243.991 177.226 217.826 178.019 203.915 195.611C191.127 211.773 195.403 233.629 196.007 236.487Z" fill="#D69A72"/>
<path d="M226.524 243.142C227.251 243.367 228.044 243.113 228.506 242.508L231.318 238.83C233.499 235.978 237.352 235 240.627 236.467L244.899 238.381C245.402 238.605 245.987 238.549 246.436 238.235C247.391 237.568 247.308 236.127 246.281 235.572L242.808 233.702C237.712 230.959 231.371 232.396 227.961 237.075L225.585 240.334C224.848 241.341 225.327 242.776 226.524 243.142Z" fill="#333333"/>
<path d="M257.149 235.655C257.773 235.955 258.52 235.833 259.019 235.351L262.049 232.42C264.395 230.149 267.997 229.789 270.747 231.551L274.335 233.85C274.758 234.121 275.29 234.151 275.74 233.926C276.691 233.454 276.81 232.145 275.961 231.511L273.086 229.356C268.87 226.197 262.968 226.637 259.267 230.384L256.69 232.995C255.887 233.807 256.121 235.162 257.149 235.655Z" fill="#333333"/>
<path d="M216.247 231.342C218.137 229.449 222.426 225.771 227.687 225.163C228.232 225.1 228.678 224.723 228.79 224.225C228.979 223.395 228.196 222.655 227.297 222.82C223.738 223.465 216.151 225.315 213.693 229.667C213.362 230.249 213.488 230.962 214 231.412C214.634 231.97 215.645 231.944 216.247 231.342Z" fill="#333333"/>
<path d="M274.395 217.754C272.016 217.054 266.887 215.963 262.244 217.768C261.762 217.956 261.233 217.847 260.929 217.493C260.42 216.909 260.761 215.97 261.58 215.709C264.819 214.675 271.926 212.857 275.819 215.286C276.338 215.61 276.536 216.238 276.301 216.826C276.004 217.559 275.148 217.976 274.395 217.754Z" fill="#333333"/>
<path d="M233.969 257.599C235.231 257.599 236.255 256.756 236.255 255.716C236.255 254.676 235.231 253.832 233.969 253.832C232.706 253.832 231.682 254.676 231.682 255.716C231.682 256.756 232.706 257.599 233.969 257.599Z" fill="#C18A6B"/>
<path d="M267.852 251.413C269.115 251.413 270.139 250.57 270.139 249.53C270.139 248.49 269.115 247.646 267.852 247.646C266.589 247.646 265.565 248.49 265.565 249.53C265.565 250.57 266.589 251.413 267.852 251.413Z" fill="#C18A6B"/>
<path d="M238.525 263.488C238.525 263.488 239.751 269.429 252.662 268.623C265.572 267.816 268.259 260.553 268.259 259.747C268.259 258.941 267.181 257.328 267.181 257.328L238.525 263.488Z" fill="#C18A6B"/>
<path d="M235.287 254.516L248.881 253.366C251.571 253.138 254.228 252.613 256.802 251.8L266.93 248.601C267.69 248.36 268.493 248.823 268.668 249.603C269.508 253.33 270.172 263.369 254.542 267.278C238.71 271.237 234.923 260.273 234.071 256.142C233.902 255.346 234.477 254.586 235.287 254.516Z" fill="#333333"/>
<path d="M237.963 254.292L248.881 253.37C251.571 253.142 254.228 252.616 256.802 251.803L264.399 249.404C266.685 248.684 269.018 250.382 269.025 252.778C269.035 257.381 266.794 264.215 254.542 267.278C241.714 270.487 236.794 263.894 234.933 259.08C234.084 256.882 235.614 254.49 237.963 254.292Z" fill="white"/>
<path d="M272.257 335.111L268.49 333.062C266.428 331.942 265.004 329.718 264.809 326.857L268.576 328.905C268.774 331.767 270.195 333.991 272.257 335.111Z" fill="#1E2024"/>
<path d="M289.443 283.767L285.676 281.718C285.967 281.646 286.258 281.586 286.545 281.546C287.523 281.408 288.458 281.464 289.324 281.688L293.091 283.737C292.225 283.513 291.287 283.46 290.312 283.595C290.025 283.635 289.734 283.691 289.443 283.767Z" fill="#26292E"/>
<path d="M293.091 283.737L289.324 281.688C289.763 281.801 290.183 281.956 290.583 282.154L294.35 284.203C293.95 284.005 293.531 283.85 293.091 283.737Z" fill="#24282D"/>
<path d="M294.35 284.2L290.583 282.151C290.662 282.191 290.742 282.23 290.818 282.273L294.585 284.322C294.509 284.282 294.429 284.24 294.35 284.2Z" fill="#23262B"/>
<path d="M268.579 328.905L264.812 326.86L263.811 308.494L267.578 310.543L268.579 328.905Z" fill="#1D1F23"/>
<path d="M275.224 295.283L271.457 293.234C271.569 292.93 271.629 292.606 271.629 292.283C271.629 292.243 271.629 292.203 271.626 292.164C271.586 291.427 271.222 290.855 270.697 290.568L274.464 292.616C274.993 292.904 275.353 293.475 275.393 294.212C275.396 294.252 275.396 294.292 275.396 294.331C275.396 294.655 275.333 294.979 275.224 295.283Z" fill="#1E2024"/>
<path d="M272.491 297.021L268.724 294.972C268.929 295.025 269.147 295.042 269.379 295.015C269.395 295.012 269.412 295.012 269.428 295.009C269.438 295.009 269.445 295.005 269.455 295.005C269.471 295.002 269.491 294.999 269.508 294.995C269.554 294.989 269.597 294.979 269.643 294.966C269.782 294.929 269.917 294.883 270.046 294.82L273.813 296.869C273.684 296.929 273.549 296.978 273.41 297.014C273.364 297.024 273.318 297.034 273.275 297.044C273.258 297.047 273.238 297.051 273.222 297.054C273.212 297.054 273.205 297.057 273.195 297.057C273.179 297.061 273.162 297.061 273.146 297.064C272.914 297.087 272.696 297.071 272.491 297.021Z" fill="#26292E"/>
<path d="M273.813 296.869L270.046 294.82C270.168 294.764 270.287 294.695 270.4 294.615L274.167 296.664C274.054 296.74 273.935 296.81 273.813 296.869Z" fill="#24282D"/>
<path d="M274.167 296.664L270.4 294.615C270.492 294.549 270.582 294.48 270.668 294.404L274.435 296.453C274.352 296.529 274.263 296.598 274.167 296.664Z" fill="#23262B"/>
<path d="M274.434 296.453L270.667 294.404C270.747 294.331 270.823 294.255 270.895 294.173L274.662 296.221C274.593 296.304 274.517 296.38 274.434 296.453Z" fill="#22252A"/>
<path d="M274.663 296.221L270.896 294.173C270.968 294.09 271.034 294.004 271.097 293.915L274.864 295.964C274.805 296.053 274.735 296.139 274.663 296.221Z" fill="#212429"/>
<path d="M274.867 295.964L271.1 293.915C271.166 293.819 271.229 293.72 271.285 293.614L275.052 295.663C274.996 295.765 274.933 295.868 274.867 295.964Z" fill="#202327"/>
<path d="M275.052 295.663L271.285 293.614C271.351 293.492 271.408 293.363 271.457 293.234L275.224 295.283C275.175 295.412 275.119 295.541 275.052 295.663Z" fill="#1F2126"/>
<path d="M275.224 295.283L271.457 293.234C271.569 292.93 271.629 292.606 271.629 292.283C271.629 292.243 271.629 292.203 271.626 292.164C271.586 291.427 271.222 290.855 270.697 290.568L274.464 292.616C274.993 292.904 275.353 293.475 275.393 294.212C275.396 294.252 275.396 294.292 275.396 294.331C275.396 294.655 275.333 294.979 275.224 295.283Z" fill="#1E2024"/>
<path d="M272.491 297.021L268.724 294.972C268.929 295.025 269.147 295.042 269.378 295.015C269.395 295.012 269.411 295.012 269.428 295.009C269.438 295.009 269.444 295.005 269.454 295.005C269.471 295.002 269.491 294.999 269.507 294.995C269.554 294.989 269.596 294.979 269.643 294.966C269.782 294.929 269.917 294.883 270.046 294.82L273.813 296.869C273.684 296.929 273.549 296.978 273.41 297.014C273.364 297.024 273.317 297.034 273.274 297.044C273.258 297.047 273.238 297.051 273.221 297.054C273.212 297.054 273.205 297.057 273.195 297.057C273.178 297.061 273.162 297.061 273.145 297.064C272.914 297.087 272.696 297.071 272.491 297.021Z" fill="#26292E"/>
<path d="M272.174 296.901L268.407 294.853C268.506 294.902 268.612 294.942 268.724 294.968L272.491 297.017C272.379 296.991 272.273 296.951 272.174 296.901Z" fill="#24282D"/>
<path d="M272.491 297.021L268.724 294.972C268.929 295.025 269.147 295.042 269.378 295.015C269.395 295.012 269.411 295.012 269.428 295.009C269.438 295.009 269.444 295.005 269.454 295.005C269.471 295.002 269.491 294.999 269.507 294.995C269.554 294.989 269.596 294.979 269.643 294.966C269.782 294.929 269.917 294.883 270.046 294.82L273.813 296.869C273.684 296.929 273.549 296.978 273.41 297.014C273.364 297.024 273.317 297.034 273.274 297.044C273.258 297.047 273.238 297.051 273.221 297.054C273.212 297.054 273.205 297.057 273.195 297.057C273.178 297.061 273.162 297.061 273.145 297.064C272.914 297.087 272.696 297.071 272.491 297.021Z" fill="#26292E"/>
<path d="M275.224 295.283L271.457 293.234C271.569 292.93 271.629 292.606 271.629 292.283C271.629 292.243 271.629 292.203 271.626 292.164C271.586 291.427 271.222 290.855 270.697 290.568L274.464 292.616C274.993 292.904 275.353 293.475 275.393 294.212C275.396 294.252 275.396 294.292 275.396 294.331C275.396 294.655 275.333 294.979 275.224 295.283Z" fill="#1E2024"/>
<path d="M272.115 296.872L268.348 294.824C268.367 294.834 268.387 294.843 268.407 294.853L272.174 296.902C272.154 296.892 272.135 296.882 272.115 296.872Z" fill="#23262B"/>
<path d="M272.174 296.902L268.407 294.853C268.506 294.903 268.612 294.943 268.724 294.969L272.491 297.018C272.379 296.991 272.273 296.952 272.174 296.902Z" fill="#24282D"/>
<path d="M274.781 287.468L271.014 285.419L285.676 281.718L289.443 283.767L274.781 287.468Z" fill="#282C32"/>
<path d="M273.142 297.061C272.098 297.18 271.249 296.429 271.183 295.273C271.179 295.233 271.179 295.194 271.179 295.154C271.173 293.941 272.035 292.758 273.162 292.471C273.218 292.458 273.271 292.444 273.324 292.438C273.341 292.434 273.36 292.431 273.377 292.428C273.41 292.425 273.443 292.418 273.476 292.418C274.497 292.329 275.323 293.072 275.386 294.209C275.389 294.249 275.389 294.288 275.389 294.328C275.396 295.541 274.533 296.724 273.407 297.011C273.36 297.021 273.314 297.031 273.271 297.041C273.255 297.044 273.235 297.047 273.218 297.051C273.208 297.051 273.202 297.054 273.192 297.054C273.175 297.057 273.159 297.061 273.142 297.061Z" fill="#DFDFDF"/>
<path d="M272.115 296.872L268.348 294.824C267.819 294.536 267.459 293.964 267.419 293.228C267.416 293.188 267.416 293.148 267.416 293.109C267.413 292.785 267.475 292.461 267.584 292.157L271.351 294.206C271.239 294.51 271.18 294.834 271.183 295.157C271.183 295.197 271.183 295.237 271.186 295.276C271.226 296.013 271.586 296.585 272.115 296.872Z" fill="#858585"/>
<path d="M271.351 294.206L267.584 292.157C267.634 292.025 267.69 291.899 267.756 291.777L271.523 293.826C271.457 293.948 271.401 294.074 271.351 294.206Z" fill="#8A8A8A"/>
<path d="M271.523 293.822L267.756 291.774C267.812 291.671 267.875 291.569 267.941 291.473L271.708 293.522C271.642 293.621 271.579 293.72 271.523 293.822Z" fill="#8F8F8F"/>
<path d="M271.708 293.525L267.941 291.476C268.004 291.387 268.074 291.301 268.143 291.219L271.91 293.267C271.837 293.347 271.771 293.432 271.708 293.525Z" fill="#949494"/>
<path d="M271.91 293.267L268.143 291.218C268.216 291.136 268.292 291.06 268.371 290.987L272.138 293.036C272.059 293.109 271.983 293.185 271.91 293.267Z" fill="#999999"/>
<path d="M272.138 293.036L268.371 290.987C268.457 290.911 268.546 290.839 268.638 290.776L272.406 292.825C272.313 292.887 272.224 292.96 272.138 293.036Z" fill="#9E9E9E"/>
<path d="M272.405 292.824L268.638 290.776C268.751 290.696 268.87 290.63 268.992 290.571L272.759 292.62C272.637 292.676 272.518 292.745 272.405 292.824Z" fill="#A3A3A3"/>
<path d="M272.762 292.62L268.995 290.571C269.124 290.511 269.26 290.462 269.398 290.425C269.455 290.412 269.508 290.399 269.56 290.392C269.577 290.389 269.597 290.386 269.613 290.382C269.646 290.379 269.679 290.373 269.712 290.373C269.924 290.353 270.125 290.369 270.317 290.419L274.084 292.468C273.896 292.418 273.691 292.401 273.479 292.421C273.446 292.425 273.413 292.428 273.38 292.431C273.364 292.435 273.344 292.438 273.327 292.441C273.275 292.451 273.218 292.461 273.166 292.474C273.027 292.511 272.891 292.56 272.762 292.62Z" fill="#A8A8A8"/>
<path d="M274.084 292.468L270.317 290.419C270.426 290.449 270.532 290.485 270.631 290.534L274.398 292.583C274.299 292.537 274.193 292.497 274.084 292.468Z" fill="#A3A3A3"/>
<path d="M274.398 292.583L270.631 290.534C270.651 290.544 270.671 290.554 270.691 290.567L274.458 292.616C274.441 292.606 274.418 292.593 274.398 292.583Z" fill="#9E9E9E"/>
<path d="M267.578 310.543L263.811 308.494L263.16 296.535L266.927 298.584L267.578 310.543Z" fill="#1D1F23"/>
<path d="M276.536 335.841C272.349 336.43 268.893 333.489 268.579 328.909L267.577 310.543L266.927 298.584C266.656 293.608 270.175 288.634 274.781 287.468L289.443 283.764C289.734 283.691 290.024 283.632 290.312 283.592C294.499 283.004 297.958 285.951 298.266 290.541L298.477 294.43L299.095 305.761L299.918 320.856C300.189 325.829 296.673 330.802 292.067 331.969L284.734 333.819L277.372 335.679C277.091 335.749 276.81 335.802 276.536 335.841ZM273.165 292.474C272.038 292.758 271.176 293.945 271.183 295.157C271.183 295.197 271.183 295.237 271.186 295.276C271.249 296.433 272.101 297.183 273.145 297.064C273.162 297.061 273.178 297.061 273.195 297.057C273.205 297.057 273.212 297.054 273.221 297.054C273.238 297.051 273.258 297.047 273.274 297.044C273.321 297.038 273.364 297.028 273.41 297.014C274.537 296.73 275.399 295.544 275.392 294.331C275.392 294.292 275.392 294.252 275.389 294.212C275.326 293.076 274.5 292.329 273.479 292.421C273.446 292.425 273.413 292.428 273.38 292.431C273.364 292.434 273.344 292.438 273.327 292.441C273.274 292.448 273.218 292.461 273.165 292.474Z" fill="#32363D"/>
<path d="M266.926 298.584L263.159 296.535C263.08 295.085 263.321 293.637 263.82 292.282L267.587 294.331C267.088 295.686 266.847 297.133 266.926 298.584Z" fill="#1E2024"/>
<path d="M267.587 294.331L263.82 292.282C264.012 291.764 264.24 291.258 264.501 290.772L268.268 292.821C268.004 293.307 267.776 293.809 267.587 294.331Z" fill="#1F2126"/>
<path d="M268.265 292.818L264.498 290.769C264.719 290.359 264.964 289.963 265.231 289.579L268.998 291.628C268.731 292.012 268.486 292.408 268.265 292.818Z" fill="#202327"/>
<path d="M268.998 291.631L265.231 289.583C265.482 289.226 265.75 288.885 266.034 288.562L269.801 290.61C269.517 290.934 269.249 291.275 268.998 291.631Z" fill="#212429"/>
<path d="M269.805 290.61L266.038 288.562C266.322 288.238 266.626 287.934 266.943 287.646L270.71 289.695C270.39 289.983 270.089 290.287 269.805 290.61Z" fill="#22252A"/>
<path d="M270.71 289.695L266.943 287.646C267.28 287.342 267.637 287.061 268.007 286.804L271.774 288.852C271.404 289.11 271.047 289.391 270.71 289.695Z" fill="#23262B"/>
<path d="M271.774 288.852L268.007 286.804C268.453 286.496 268.922 286.222 269.408 285.994L273.175 288.043C272.689 288.274 272.22 288.545 271.774 288.852Z" fill="#24282D"/>
<path d="M273.175 288.046L269.408 285.997C269.924 285.756 270.459 285.561 271.011 285.422L274.778 287.471C274.229 287.607 273.691 287.802 273.175 288.046Z" fill="#26292E"/>
<path d="M266.375 305.467C266.375 305.467 246.472 359.253 225.767 309.231C225.767 309.231 216.624 305.467 214.74 314.34C214.74 314.34 247.55 382.916 270.139 319.987L266.375 305.467Z" fill="#D69A72"/>
<path d="M228.496 318.982L218.177 319.851C215.972 320.036 214.033 318.401 213.848 316.193L213.686 314.26C213.26 309.204 217.013 304.763 222.066 304.337C227.122 303.911 231.563 307.664 231.989 312.717L232.151 314.65C232.339 316.857 230.7 318.794 228.496 318.982Z" fill="#0FBEAB"/>
<path d="M271.632 319.917C269.934 320.278 268.252 319.257 267.786 317.585L265.605 307.483C265.605 307.483 265.007 304.102 269.22 302.311C273.463 300.507 279.014 300.134 281.162 300.058C281.77 300.035 282.342 300.349 282.646 300.877C283.178 301.809 283.773 303.405 282.96 305.107C282.96 305.107 284.394 307.291 283.617 308.824C283.617 308.824 284.893 312.083 283.72 313.338C283.72 313.338 284.536 315.982 283.303 316.897C282.434 317.542 275.855 319.025 271.632 319.917Z" fill="#D69A72"/>
<path d="M265.354 309.842C265.354 309.842 266.646 315.959 268.526 315.959C270.406 315.959 266.107 307.083 266.107 307.083L265.354 309.842Z" fill="#C18A6B"/>
<path d="M282.729 304.942C281.258 305.355 274.243 307.675 268.81 306.69L282.729 304.942Z" fill="#C18A6B"/>
<path d="M283.541 308.967C282.21 309.37 275.865 311.656 270.938 310.642L283.541 308.967Z" fill="#C18A6B"/>
<path d="M283.766 313.381C282.57 313.778 276.863 316.028 272.419 314.99L283.766 313.381Z" fill="#C18A6B"/>
<path d="M194.418 242.904C194.418 242.904 183.645 204.507 201.602 192.628C210.719 175.223 242.487 172.187 254.363 177.434C254.363 177.434 249.39 177.434 247.457 179.093C247.457 179.093 260.718 177.989 267.346 183.237C267.346 183.237 256.848 182.685 254.086 185.17C254.086 185.17 271.213 184.34 276.463 190.143C276.463 190.143 269.835 190.695 269.28 193.183C269.28 193.183 278.396 194.842 280.881 188.762C280.881 188.762 280.052 197.878 273.146 200.915L260.437 201.745L251.495 208.228C250.13 209.216 248.472 209.718 246.786 209.652L228.668 208.928C228.668 208.928 213.474 214.176 211.541 223.018C211.541 223.018 207.398 220.256 209.883 214.731C209.883 214.731 201.043 230.754 204.635 242.356C204.635 242.356 197.729 239.042 198.281 233.517C198.281 233.517 196.07 240.423 198.003 246.225C198.003 246.225 195.792 242.082 195.792 237.109L194.418 242.904Z" fill="#828282"/>
<path d="M49.3898 305.104H100.086C103.909 305.104 107.009 302.004 107.009 298.181V274.716C107.009 256.892 92.5588 242.445 74.738 242.445C56.914 242.445 42.467 256.895 42.467 274.716V298.181C42.4637 302.004 45.5633 305.104 49.3898 305.104Z" fill="#FFC75A"/>
<path d="M74.7382 255.62C81.1257 255.62 86.3037 250.442 86.3037 244.054V232.489H63.176V244.054C63.1727 250.442 68.3507 255.62 74.7382 255.62Z" fill="#C18A6B"/>
<path d="M121.172 198.202C118.099 220.976 101.828 238.146 82.6292 240.155C65.4098 241.959 49.9418 231.137 42.3582 217.028C30.9645 195.82 36.9092 166.308 55.946 151.947C73.1885 138.941 99.3529 139.734 113.265 157.327C126.049 173.492 121.773 195.347 121.172 198.202Z" fill="#D69A72"/>
<path d="M90.6554 204.861C89.9285 205.085 89.1354 204.831 88.6728 204.226L85.8607 200.548C83.6798 197.697 79.8268 196.719 76.5522 198.186L72.2795 200.099C71.7773 200.324 71.1924 200.268 70.743 199.954C69.788 199.286 69.8706 197.845 70.8983 197.29L74.3712 195.42C79.4667 192.677 85.8078 194.115 89.218 198.794L91.5939 202.052C92.3275 203.06 91.8483 204.494 90.6554 204.861Z" fill="#333333"/>
<path d="M60.027 197.373C59.4025 197.673 58.6557 197.551 58.1567 197.069L55.1266 194.138C52.7804 191.868 49.1786 191.507 46.4293 193.269L42.8407 195.569C42.4178 195.84 41.8857 195.869 41.4363 195.645C40.4847 195.172 40.3657 193.863 41.2149 193.229L44.0898 191.075C48.3062 187.916 54.2079 188.355 57.9089 192.102L60.4863 194.713C61.2893 195.522 61.0547 196.88 60.027 197.373Z" fill="#333333"/>
<path d="M100.932 193.061C99.0423 191.167 94.7531 187.489 89.4925 186.881C88.9473 186.818 88.5012 186.442 88.3888 185.943C88.2005 185.113 88.9836 184.373 89.8824 184.538C93.4413 185.183 101.028 187.033 103.487 191.385C103.817 191.967 103.692 192.681 103.179 193.13C102.542 193.688 101.531 193.662 100.932 193.061Z" fill="#333333"/>
<path d="M42.781 179.473C45.1602 178.772 50.2886 177.682 54.9314 179.486C55.4138 179.674 55.9425 179.565 56.2465 179.212C56.7554 178.627 56.415 177.688 55.5955 177.427C52.3572 176.393 45.2494 174.576 41.3568 177.004C40.838 177.328 40.6397 177.956 40.8743 178.544C41.1717 179.278 42.0276 179.694 42.781 179.473Z" fill="#333333"/>
<path d="M83.2073 219.314C84.4702 219.314 85.494 218.471 85.494 217.431C85.494 216.39 84.4702 215.547 83.2073 215.547C81.9444 215.547 80.9207 216.39 80.9207 217.431C80.9207 218.471 81.9444 219.314 83.2073 219.314Z" fill="#C18A6B"/>
<path d="M49.3238 213.132C50.5867 213.132 51.6104 212.288 51.6104 211.248C51.6104 210.208 50.5867 209.365 49.3238 209.365C48.0609 209.365 47.0371 210.208 47.0371 211.248C47.0371 212.288 48.0609 213.132 49.3238 213.132Z" fill="#C18A6B"/>
<path d="M78.6538 225.206C78.6538 225.206 77.4279 231.147 64.5175 230.341C51.6072 229.535 48.9207 222.272 48.9207 221.465C48.9207 220.659 49.9979 219.047 49.9979 219.047L78.6538 225.206Z" fill="#C18A6B"/>
<path d="M81.8891 216.235L68.2947 215.085C65.6049 214.857 62.9482 214.331 60.374 213.518L50.246 210.32C49.4859 210.078 48.683 210.541 48.5078 211.321C47.6685 215.048 47.0043 225.087 62.6342 228.996C78.4657 232.955 82.2526 221.991 83.1051 217.86C83.2737 217.061 82.702 216.301 81.8891 216.235Z" fill="#333333"/>
<path d="M79.2157 216.006L68.2979 215.085C65.6081 214.857 62.9513 214.331 60.3771 213.518L52.7803 211.119C50.4936 210.399 48.1607 212.097 48.1541 214.493C48.1442 219.096 50.3846 225.93 62.6374 228.993C75.4652 232.201 80.3854 225.609 82.2458 220.795C83.0917 218.6 81.5618 216.205 79.2157 216.006Z" fill="white"/>
<path d="M20.7078 242.468L24.108 240.978C24.2071 240.935 24.3096 240.895 24.4153 240.859L21.0151 242.349C20.9126 242.382 20.8102 242.422 20.7078 242.468Z" fill="#14725C"/>
<path d="M21.0151 242.346L24.4154 240.856C24.5938 240.793 24.7756 240.743 24.9639 240.704L21.5637 242.194C21.3753 242.234 21.1936 242.286 21.0151 242.346Z" fill="#15765F"/>
<path d="M21.5635 242.197L24.9637 240.707C25.1058 240.677 25.2512 240.654 25.3999 240.641L21.9997 242.131C21.851 242.144 21.7056 242.168 21.5635 242.197Z" fill="#157B63"/>
<path d="M21.9998 242.128L25.4 240.638C25.5289 240.624 25.6577 240.618 25.7899 240.615L22.3897 242.105C22.2575 242.108 22.1286 242.115 21.9998 242.128Z" fill="#167F66"/>
<path d="M22.3896 242.105L25.7899 240.614C25.9089 240.611 26.0311 240.614 26.1567 240.621L22.7564 242.111C22.6309 242.105 22.5086 242.101 22.3896 242.105Z" fill="#17836A"/>
<path d="M22.7566 242.111L26.1568 240.621C26.2659 240.628 26.3782 240.638 26.4906 240.651L23.0903 242.141C22.978 242.128 22.8656 242.118 22.7566 242.111Z" fill="#18886D"/>
<path d="M23.0903 242.141L26.4906 240.651C26.5996 240.664 26.7087 240.68 26.8177 240.7L23.4175 242.191C23.3084 242.171 23.1994 242.154 23.0903 242.141Z" fill="#188C71"/>
<path d="M23.4175 242.191L26.8177 240.7C26.9235 240.72 27.0292 240.74 27.135 240.766L23.7347 242.257C23.629 242.23 23.5232 242.21 23.4175 242.191Z" fill="#199174"/>
<path d="M23.7346 242.257L27.1349 240.766C27.1712 240.776 27.2076 240.783 27.2439 240.793L23.8437 242.283C23.8073 242.273 23.771 242.267 23.7346 242.257Z" fill="#1A9578"/>
<path d="M46.2842 286.523L49.6844 285.032C49.691 285.122 49.6976 285.211 49.7042 285.3L46.304 286.79C46.2974 286.701 46.2908 286.612 46.2842 286.523Z" fill="#1FB490"/>
<path d="M46.3005 286.79L49.7008 285.3C49.7074 285.429 49.714 285.558 49.7173 285.683L46.3171 287.174C46.3138 287.048 46.3105 286.919 46.3005 286.79Z" fill="#1EAF8D"/>
<path d="M46.3169 287.174L49.7171 285.683C49.7204 285.809 49.7204 285.931 49.7204 286.057L46.3202 287.547C46.3235 287.425 46.3202 287.299 46.3169 287.174Z" fill="#1EAB89"/>
<path d="M46.3202 287.547L49.7205 286.057C49.7205 286.179 49.7172 286.301 49.7106 286.42L46.3103 287.911C46.3169 287.792 46.3202 287.669 46.3202 287.547Z" fill="#1DA686"/>
<path d="M46.3138 287.911L49.714 286.42C49.7074 286.539 49.7008 286.661 49.6942 286.777L46.2939 288.267C46.3006 288.148 46.3072 288.03 46.3138 287.911Z" fill="#1CA282"/>
<path d="M46.2906 288.268L49.6909 286.777C49.681 286.896 49.671 287.012 49.6578 287.127L46.2576 288.618C46.2708 288.502 46.284 288.386 46.2906 288.268Z" fill="#1B9E7F"/>
<path d="M46.2577 288.618L49.6579 287.127C49.6447 287.246 49.6282 287.365 49.6117 287.481L46.2114 288.971C46.2279 288.852 46.2445 288.737 46.2577 288.618Z" fill="#1B997B"/>
<path d="M46.2113 288.968L49.6116 287.478C49.5951 287.593 49.5752 287.709 49.5521 287.825L46.1519 289.315C46.175 289.203 46.1948 289.087 46.2113 288.968Z" fill="#1A9578"/>
<path d="M46.1517 289.315L49.5519 287.825C49.5288 287.944 49.5024 288.063 49.4759 288.182L46.0757 289.672C46.1021 289.553 46.1285 289.437 46.1517 289.315Z" fill="#199174"/>
<path d="M46.0759 289.672L49.4762 288.182C49.4464 288.304 49.4167 288.419 49.3837 288.538L45.9834 290.029C46.0164 289.91 46.0462 289.791 46.0759 289.672Z" fill="#188C71"/>
<path d="M45.9833 290.025L49.3836 288.535C49.3472 288.657 49.3109 288.78 49.2679 288.899L45.8677 290.389C45.9073 290.27 45.947 290.151 45.9833 290.025Z" fill="#18886D"/>
<path d="M45.8676 290.389L49.2678 288.899C49.2215 289.031 49.1753 289.156 49.1224 289.282L45.7222 290.772C45.775 290.65 45.8213 290.521 45.8676 290.389Z" fill="#17836A"/>
<path d="M45.7224 290.772L49.1226 289.282C49.0664 289.417 49.007 289.553 48.9442 289.682L45.5439 291.172C45.6067 291.043 45.6662 290.911 45.7224 290.772Z" fill="#167F66"/>
<path d="M45.5439 291.172L48.9442 289.682C48.8715 289.83 48.7922 289.976 48.7096 290.118L45.3093 291.608C45.3919 291.469 45.4679 291.324 45.5439 291.172Z" fill="#157B63"/>
<path d="M45.3059 291.608L48.7062 290.118C48.5971 290.3 48.4815 290.472 48.3592 290.634L44.959 292.124C45.0812 291.962 45.2002 291.79 45.3059 291.608Z" fill="#15765F"/>
<path d="M44.959 292.124L48.3592 290.633C47.8702 291.274 47.2654 291.764 46.5682 292.071L43.168 293.561C43.8652 293.257 44.4699 292.768 44.959 292.124Z" fill="#14725C"/>
<path d="M38.4126 254.942L41.8128 253.452C41.8228 253.455 41.8327 253.455 41.8393 253.459L38.439 254.949C38.4324 254.946 38.4225 254.942 38.4126 254.942Z" fill="#1A9578"/>
<path d="M38.4424 254.949L41.8426 253.459C41.8691 253.465 41.8955 253.472 41.922 253.475L38.5217 254.966C38.4953 254.959 38.4688 254.956 38.4424 254.949Z" fill="#199174"/>
<path d="M38.5217 254.966L41.922 253.475C41.9484 253.482 41.9781 253.485 42.0046 253.489L38.6043 254.979C38.5746 254.976 38.5482 254.969 38.5217 254.966Z" fill="#188C71"/>
<path d="M38.6042 254.979L42.0045 253.489C42.0342 253.492 42.0607 253.495 42.0871 253.495L38.6869 254.985C38.6604 254.982 38.6307 254.982 38.6042 254.979Z" fill="#18886D"/>
<path d="M38.6868 254.985L42.087 253.495C42.1168 253.498 42.1498 253.498 42.1795 253.495L38.7793 254.985C38.7495 254.985 38.7198 254.985 38.6868 254.985Z" fill="#17836A"/>
<path d="M38.7793 254.985L42.1795 253.495C42.2126 253.495 42.2456 253.492 42.2787 253.489L38.8784 254.979C38.8454 254.982 38.8123 254.985 38.7793 254.985Z" fill="#167F66"/>
<path d="M38.8787 254.979L42.2789 253.489C42.3153 253.485 42.3516 253.479 42.388 253.472L38.9877 254.962C38.9514 254.972 38.915 254.976 38.8787 254.979Z" fill="#157B63"/>
<path d="M38.9875 254.962L42.3878 253.472C42.4341 253.462 42.4803 253.449 42.5266 253.436L39.1263 254.926C39.0801 254.942 39.0338 254.952 38.9875 254.962Z" fill="#15765F"/>
<path d="M39.1265 254.926L42.5267 253.436C42.5532 253.426 42.5796 253.416 42.6027 253.406L39.2025 254.896C39.176 254.906 39.1529 254.916 39.1265 254.926Z" fill="#14725C"/>
<path d="M37.2562 250.442L40.6564 248.952C40.4813 249.028 40.3293 249.153 40.2037 249.315L36.8035 250.805C36.929 250.643 37.081 250.518 37.2562 250.442Z" fill="#14725C"/>
<path d="M36.8033 250.805L40.2036 249.315C40.1738 249.355 40.1441 249.401 40.1144 249.444L36.7141 250.934C36.7439 250.888 36.7736 250.845 36.8033 250.805Z" fill="#15765F"/>
<path d="M36.7174 250.934L40.1177 249.444C40.0979 249.48 40.078 249.517 40.0582 249.553L36.658 251.043C36.6745 251.007 36.6943 250.97 36.7174 250.934Z" fill="#157B63"/>
<path d="M36.6581 251.043L40.0583 249.553C40.0418 249.586 40.0286 249.619 40.0121 249.652L36.6118 251.142C36.625 251.109 36.6416 251.076 36.6581 251.043Z" fill="#167F66"/>
<path d="M36.6118 251.146L40.012 249.655C39.9988 249.688 39.9856 249.718 39.9757 249.751L36.5754 251.242C36.5854 251.208 36.5986 251.175 36.6118 251.146Z" fill="#17836A"/>
<path d="M36.5754 251.242L39.9756 249.751C39.9657 249.781 39.9558 249.811 39.9459 249.844L36.5457 251.334C36.5556 251.301 36.5655 251.271 36.5754 251.242Z" fill="#18886D"/>
<path d="M36.5456 251.334L39.9459 249.844C39.9359 249.873 39.9293 249.903 39.9227 249.933L36.5225 251.423C36.5291 251.394 36.539 251.364 36.5456 251.334Z" fill="#188C71"/>
<path d="M36.5225 251.423L39.9228 249.933C39.9162 249.963 39.9096 249.992 39.903 250.022L36.5027 251.513C36.5093 251.483 36.5159 251.453 36.5225 251.423Z" fill="#199174"/>
<path d="M36.5026 251.513L39.9029 250.022C39.8963 250.052 39.8929 250.078 39.8863 250.108L36.4861 251.598C36.4927 251.569 36.496 251.542 36.5026 251.513Z" fill="#1A9578"/>
<path d="M36.4893 251.598L39.8895 250.108C39.8862 250.138 39.8796 250.168 39.8763 250.197L36.4761 251.688C36.4794 251.658 36.4827 251.628 36.4893 251.598Z" fill="#1B997B"/>
<path d="M36.4762 251.688L39.8765 250.197C39.8732 250.227 39.8699 250.257 39.8666 250.286L36.4663 251.777C36.4696 251.747 36.4729 251.717 36.4762 251.688Z" fill="#1B9E7F"/>
<path d="M36.4695 251.777L39.8698 250.286C39.8664 250.316 39.8665 250.346 39.8632 250.376L36.4629 251.866C36.4629 251.836 36.4662 251.807 36.4695 251.777Z" fill="#1CA282"/>
<path d="M36.463 251.866L39.8633 250.376C39.8633 250.405 39.86 250.435 39.86 250.468L36.4597 251.959C36.4597 251.925 36.463 251.896 36.463 251.866Z" fill="#1DA686"/>
<path d="M36.4597 251.959L39.86 250.468C39.86 250.498 39.86 250.531 39.86 250.561L36.4597 252.051C36.4597 252.018 36.4597 251.988 36.4597 251.959Z" fill="#1EAB89"/>
<path d="M36.4629 252.051L39.8632 250.561C39.8632 250.594 39.8664 250.624 39.8664 250.657L36.4662 252.147C36.4629 252.114 36.4629 252.084 36.4629 252.051Z" fill="#1EAF8D"/>
<path d="M36.4663 252.147L39.8666 250.657C39.8666 250.68 39.8699 250.703 39.8699 250.723C39.8699 250.733 39.8732 250.746 39.8732 250.756L36.4729 252.246C36.4729 252.236 36.4696 252.223 36.4696 252.213C36.4696 252.193 36.4663 252.17 36.4663 252.147Z" fill="#1FB490"/>
<path d="M36.4729 252.246L39.8731 250.756C39.8764 250.789 39.8798 250.825 39.8831 250.858L36.4828 252.348C36.4795 252.315 36.4762 252.282 36.4729 252.246Z" fill="#20B894"/>
<path d="M36.4829 252.352L39.8832 250.861C39.8865 250.898 39.8931 250.931 39.8997 250.967L36.4994 252.457C36.4928 252.421 36.4895 252.385 36.4829 252.352Z" fill="#21BC97"/>
<path d="M36.4995 252.454L39.8998 250.964C39.9064 251 39.913 251.037 39.9196 251.073L36.5194 252.563C36.5127 252.527 36.5061 252.491 36.4995 252.454Z" fill="#21C19B"/>
<path d="M36.5193 252.563L39.9195 251.073C39.9261 251.109 39.9361 251.149 39.9427 251.185L36.5424 252.676C36.5325 252.639 36.5259 252.603 36.5193 252.563Z" fill="#22C59E"/>
<path d="M36.5422 252.676L39.9425 251.185C39.9524 251.225 39.9623 251.261 39.9722 251.301L36.572 252.791C36.5588 252.755 36.5521 252.715 36.5422 252.676Z" fill="#23C9A2"/>
<path d="M36.572 252.795L39.9723 251.304C39.9822 251.347 39.9954 251.387 40.0086 251.43L36.6084 252.92C36.5918 252.877 36.5819 252.834 36.572 252.795Z" fill="#24CEA5"/>
<path d="M36.605 252.917L40.0052 251.427C40.0185 251.473 40.035 251.519 40.0515 251.562L36.6512 253.052C36.6347 253.009 36.6215 252.963 36.605 252.917Z" fill="#24D2A9"/>
<path d="M36.6514 253.056L40.0516 251.565C40.0714 251.618 40.0913 251.674 40.1111 251.727L36.7108 253.218C36.691 253.161 36.6712 253.108 36.6514 253.056Z" fill="#25D7AC"/>
<path d="M36.7107 253.214L40.111 251.724C40.1473 251.81 40.1836 251.896 40.2266 251.978L36.8264 253.469C36.7834 253.389 36.747 253.304 36.7107 253.214Z" fill="#26DBB0"/>
<path d="M36.8264 253.472L40.2267 251.982C40.263 252.054 40.2994 252.124 40.339 252.19L36.9388 253.68C36.8991 253.611 36.8628 253.541 36.8264 253.472Z" fill="#40DFB9"/>
<path d="M36.939 253.68L40.3392 252.19C40.3954 252.286 40.4549 252.378 40.5177 252.467L37.1174 253.958C37.0546 253.868 36.9951 253.776 36.939 253.68Z" fill="#26DBB0"/>
<path d="M37.1174 253.954L40.5177 252.464C40.554 252.517 40.5937 252.567 40.6333 252.616L37.2331 254.106C37.1934 254.06 37.1538 254.007 37.1174 253.954Z" fill="#25D7AC"/>
<path d="M37.2329 254.106L40.6332 252.616C40.6662 252.659 40.7025 252.699 40.7356 252.738L37.3353 254.229C37.299 254.189 37.266 254.149 37.2329 254.106Z" fill="#24D2A9"/>
<path d="M37.3354 254.229L40.7357 252.738C40.7654 252.775 40.7985 252.808 40.8315 252.841L37.4313 254.331C37.3982 254.298 37.3652 254.265 37.3354 254.229Z" fill="#24CEA5"/>
<path d="M37.428 254.331L40.8282 252.841C40.858 252.871 40.8877 252.9 40.9174 252.93L37.5172 254.42C37.4874 254.391 37.4577 254.361 37.428 254.331Z" fill="#23C9A2"/>
<path d="M37.5205 254.42L40.9208 252.93C40.9505 252.956 40.9769 252.983 41.0067 253.006L37.6064 254.496C37.5767 254.473 37.5469 254.447 37.5205 254.42Z" fill="#22C59E"/>
<path d="M37.6064 254.496L41.0067 253.006C41.0331 253.029 41.0596 253.052 41.0893 253.072L37.6891 254.562C37.6593 254.543 37.6329 254.52 37.6064 254.496Z" fill="#21C19B"/>
<path d="M37.6855 254.566L41.0858 253.075C41.1122 253.095 41.1387 253.115 41.1651 253.135L37.7648 254.625C37.7384 254.605 37.712 254.586 37.6855 254.566Z" fill="#21BC97"/>
<path d="M37.7651 254.625L41.1654 253.135C41.1918 253.155 41.2183 253.171 41.2414 253.188L37.8412 254.678C37.818 254.662 37.7916 254.642 37.7651 254.625Z" fill="#20B894"/>
<path d="M37.8411 254.678L41.2413 253.188C41.2644 253.204 41.2909 253.221 41.314 253.234L37.9138 254.724C37.8906 254.711 37.8675 254.695 37.8411 254.678Z" fill="#1FB490"/>
<path d="M37.917 254.724L41.3172 253.234C41.3404 253.251 41.3668 253.264 41.3933 253.277L37.993 254.767C37.9666 254.754 37.9401 254.741 37.917 254.724Z" fill="#1EAF8D"/>
<path d="M37.9929 254.771L41.3932 253.28C41.4163 253.293 41.4427 253.307 41.4659 253.32L38.0656 254.81C38.0392 254.797 38.0161 254.784 37.9929 254.771Z" fill="#1EAB89"/>
<path d="M38.0657 254.807L41.4659 253.317C41.489 253.33 41.5155 253.34 41.5386 253.353L38.1384 254.843C38.1119 254.833 38.0888 254.82 38.0657 254.807Z" fill="#1DA686"/>
<path d="M38.1384 254.843L41.5387 253.353C41.5618 253.363 41.5882 253.376 41.6114 253.386L38.2111 254.876C38.188 254.866 38.1616 254.853 38.1384 254.843Z" fill="#1CA282"/>
<path d="M38.2109 254.876L41.6112 253.386C41.6376 253.396 41.6607 253.406 41.6872 253.413L38.2869 254.903C38.2605 254.893 38.2374 254.886 38.2109 254.876Z" fill="#1B9E7F"/>
<path d="M38.2871 254.903L41.6874 253.412C41.7138 253.422 41.7369 253.429 41.7634 253.436L38.3631 254.926C38.3367 254.919 38.3102 254.913 38.2871 254.903Z" fill="#1B997B"/>
<path d="M38.363 254.926L41.7633 253.436C41.7798 253.439 41.7963 253.446 41.8129 253.449L38.4126 254.939C38.3961 254.936 38.3796 254.933 38.363 254.926Z" fill="#1A9578"/>
<path d="M37.2561 250.442L40.6563 248.952C40.6828 248.942 40.7059 248.932 40.7324 248.922L37.3321 250.412C37.3057 250.422 37.2792 250.432 37.2561 250.442Z" fill="#858585"/>
<path d="M37.332 250.412L40.7323 248.922C40.7786 248.905 40.8215 248.892 40.8711 248.885L37.4708 250.376C37.4245 250.382 37.3783 250.396 37.332 250.412Z" fill="#8A8A8A"/>
<path d="M37.4709 250.372L40.8712 248.882C40.9076 248.876 40.9439 248.869 40.9803 248.866L37.58 250.356C37.5437 250.363 37.5073 250.366 37.4709 250.372Z" fill="#8F8F8F"/>
<path d="M37.5798 250.356L40.9801 248.866C41.0131 248.862 41.0462 248.859 41.0792 248.859L37.679 250.349C37.6459 250.353 37.6129 250.353 37.5798 250.356Z" fill="#949494"/>
<path d="M37.679 250.353L41.0792 248.862C41.109 248.862 41.1387 248.862 41.1717 248.862L37.7715 250.353C37.7384 250.349 37.7087 250.349 37.679 250.353Z" fill="#999999"/>
<path d="M37.7717 250.353L41.172 248.862C41.1984 248.862 41.2281 248.866 41.2546 248.869L37.8543 250.359C37.8279 250.356 37.7982 250.353 37.7717 250.353Z" fill="#9E9E9E"/>
<path d="M37.8542 250.359L41.2545 248.869C41.2809 248.872 41.3107 248.875 41.3371 248.882L37.9369 250.372C37.9104 250.366 37.8807 250.362 37.8542 250.359Z" fill="#A3A3A3"/>
<path d="M37.9368 250.373L41.337 248.882C41.3634 248.886 41.3899 248.892 41.4163 248.899L38.0161 250.389C37.9896 250.382 37.9632 250.376 37.9368 250.373Z" fill="#A8A8A8"/>
<path d="M38.0161 250.389L41.4164 248.899C41.4263 248.902 41.4362 248.902 41.4428 248.905L38.0426 250.396C38.0359 250.392 38.026 250.392 38.0161 250.389Z" fill="#ADADAD"/>
<path d="M23.8435 242.283L27.2438 240.793L39.5164 243.959L36.1194 245.449L23.8435 242.283Z" fill="#1C9F80"/>
<path d="M38.0459 250.396L41.4461 248.905C41.4627 248.909 41.4792 248.915 41.4957 248.919L38.0955 250.409C38.0789 250.405 38.0624 250.399 38.0459 250.396Z" fill="#ADADAD"/>
<path d="M38.0945 250.408L41.4947 248.918C41.5212 248.925 41.5443 248.935 41.5707 248.941L38.1705 250.432C38.1441 250.425 38.1209 250.418 38.0945 250.408Z" fill="#B3B3B3"/>
<path d="M38.1714 250.435L41.5716 248.945C41.5981 248.955 41.6212 248.961 41.6476 248.971L38.2474 250.462C38.2209 250.452 38.1978 250.442 38.1714 250.435Z" fill="#B8B8B8"/>
<path d="M38.2473 250.462L41.6476 248.971C41.6707 248.981 41.6971 248.991 41.7203 249.004L38.32 250.495C38.2969 250.482 38.2704 250.472 38.2473 250.462Z" fill="#BDBDBD"/>
<path d="M38.3201 250.495L41.7203 249.004C41.7435 249.014 41.7699 249.028 41.793 249.041L38.3928 250.531C38.3696 250.518 38.3465 250.505 38.3201 250.495Z" fill="#C2C2C2"/>
<path d="M38.3928 250.528L41.7931 249.037C41.8162 249.051 41.8426 249.064 41.8658 249.077L38.4655 250.567C38.4424 250.554 38.4193 250.541 38.3928 250.528Z" fill="#C7C7C7"/>
<path d="M38.4656 250.567L41.8658 249.077C41.8923 249.09 41.9154 249.107 41.9418 249.12L38.5416 250.61C38.5185 250.597 38.492 250.581 38.4656 250.567Z" fill="#CCCCCC"/>
<path d="M38.5415 250.61L41.9417 249.12C41.9682 249.137 41.9913 249.15 42.0144 249.166L38.6142 250.657C38.5911 250.643 38.5679 250.627 38.5415 250.61Z" fill="#D1D1D1"/>
<path d="M38.614 250.66L42.0143 249.17C42.0407 249.186 42.0671 249.206 42.0903 249.223L38.69 250.713C38.6669 250.693 38.6404 250.676 38.614 250.66Z" fill="#D6D6D6"/>
<path d="M38.6936 250.713L42.0939 249.223C42.1203 249.242 42.1467 249.262 42.1732 249.282L38.7729 250.772C38.7465 250.752 38.72 250.733 38.6936 250.713Z" fill="#DBDBDB"/>
<path d="M38.7729 250.772L42.1732 249.282C42.1996 249.305 42.2294 249.325 42.2558 249.348L38.8556 250.838C38.8258 250.819 38.7994 250.795 38.7729 250.772Z" fill="#E0E0E0"/>
<path d="M38.8521 250.842L42.2523 249.351C42.282 249.378 42.3118 249.401 42.3382 249.427L38.9379 250.918C38.9115 250.891 38.8818 250.865 38.8521 250.842Z" fill="#E6E6E6"/>
<path d="M38.938 250.918L42.3383 249.427C42.368 249.457 42.3977 249.484 42.4275 249.517L39.0272 251.007C39.0008 250.977 38.971 250.947 38.938 250.918Z" fill="#EBEBEB"/>
<path d="M39.0271 251.007L42.4273 249.517C42.4604 249.55 42.4901 249.583 42.5232 249.619L39.1229 251.109C39.0932 251.073 39.0601 251.04 39.0271 251.007Z" fill="#F0F0F0"/>
<path d="M39.123 251.106L42.5233 249.616C42.5597 249.655 42.5927 249.695 42.6257 249.738L39.2255 251.228C39.1924 251.189 39.1594 251.146 39.123 251.106Z" fill="#F5F5F5"/>
<path d="M39.2256 251.228L42.6259 249.738C42.6655 249.788 42.7051 249.837 42.7415 249.89L39.3413 251.38C39.3049 251.331 39.2652 251.278 39.2256 251.228Z" fill="#FAFAFA"/>
<path d="M39.3411 251.38L42.7413 249.89C42.8041 249.979 42.8636 250.072 42.9198 250.168L39.5195 251.658C39.4633 251.562 39.4038 251.47 39.3411 251.38Z" fill="white"/>
<path d="M39.5195 251.658L42.9198 250.168C42.9594 250.237 42.9958 250.306 43.0321 250.376L39.6319 251.866C39.5955 251.793 39.5592 251.724 39.5195 251.658Z" fill="white"/>
<path d="M39.6318 251.866L43.0321 250.376C43.075 250.458 43.1114 250.544 43.1477 250.63L39.7475 252.12C39.7111 252.035 39.6715 251.949 39.6318 251.866Z" fill="white"/>
<path d="M39.7476 252.121L43.1478 250.63C43.171 250.683 43.1908 250.736 43.2073 250.792L39.807 252.282C39.7872 252.23 39.7674 252.173 39.7476 252.121Z" fill="#FAFAFA"/>
<path d="M39.8071 252.282L43.2074 250.792C43.2239 250.838 43.2371 250.885 43.2536 250.928L39.8534 252.418C39.8369 252.375 39.8237 252.329 39.8071 252.282Z" fill="#F5F5F5"/>
<path d="M39.8533 252.421L43.2535 250.931C43.2667 250.971 43.2767 251.014 43.2899 251.056L39.8896 252.547C39.8764 252.504 39.8632 252.461 39.8533 252.421Z" fill="#F0F0F0"/>
<path d="M39.8862 252.544L43.2865 251.053C43.2964 251.093 43.3063 251.129 43.3162 251.169L39.916 252.659C39.9061 252.623 39.8961 252.583 39.8862 252.544Z" fill="#EBEBEB"/>
<path d="M39.9163 252.659L43.3165 251.169C43.3264 251.205 43.333 251.245 43.3396 251.281L39.9394 252.771C39.9328 252.735 39.9262 252.699 39.9163 252.659Z" fill="#E6E6E6"/>
<path d="M39.9392 252.775L43.3395 251.285C43.3461 251.321 43.3527 251.357 43.3593 251.394L39.959 252.884C39.9524 252.844 39.9458 252.811 39.9392 252.775Z" fill="#E0E0E0"/>
<path d="M39.9592 252.881L43.3595 251.39C43.3661 251.427 43.3694 251.46 43.376 251.496L39.9757 252.986C39.9691 252.953 39.9658 252.917 39.9592 252.881Z" fill="#DBDBDB"/>
<path d="M39.9756 252.986L43.3759 251.496C43.3792 251.529 43.3824 251.565 43.3858 251.598L39.9855 253.089C39.9822 253.056 39.9789 253.023 39.9756 252.986Z" fill="#D6D6D6"/>
<path d="M39.9856 253.089L43.3858 251.598C43.3858 251.608 43.3891 251.622 43.3891 251.631C43.3925 251.655 43.3925 251.678 43.3925 251.698L39.9922 253.188C39.9922 253.165 39.9889 253.142 39.9889 253.122C39.9889 253.112 39.9856 253.102 39.9856 253.089Z" fill="#D1D1D1"/>
<path d="M39.9922 253.191L43.3925 251.701C43.3958 251.734 43.3958 251.767 43.3958 251.797L39.9955 253.287C39.9955 253.254 39.9955 253.221 39.9922 253.191Z" fill="#CCCCCC"/>
<path d="M39.9954 253.287L43.3956 251.797C43.3956 251.83 43.3956 251.859 43.3956 251.889L39.9954 253.379C39.9987 253.35 39.9987 253.317 39.9954 253.287Z" fill="#C7C7C7"/>
<path d="M39.9987 253.379L43.3989 251.889C43.3989 251.919 43.3989 251.952 43.3956 251.982L39.9954 253.472C39.9954 253.442 39.9987 253.409 39.9987 253.379Z" fill="#C2C2C2"/>
<path d="M39.9954 253.472L43.3956 251.982C43.3956 252.011 43.3923 252.041 43.389 252.071L39.9888 253.561C39.9921 253.531 39.9954 253.502 39.9954 253.472Z" fill="#BDBDBD"/>
<path d="M39.9889 253.561L43.3892 252.071C43.3859 252.101 43.3826 252.13 43.3792 252.16L39.979 253.65C39.9856 253.621 39.9889 253.591 39.9889 253.561Z" fill="#B8B8B8"/>
<path d="M39.9822 253.65L43.3825 252.16C43.3792 252.19 43.3759 252.22 43.3693 252.249L39.969 253.74C39.9756 253.71 39.9789 253.68 39.9822 253.65Z" fill="#B3B3B3"/>
<path d="M39.9689 253.736L43.3692 252.246C43.3659 252.276 43.3593 252.306 43.3527 252.332L39.9524 253.822C39.959 253.796 39.9656 253.766 39.9689 253.736Z" fill="#ADADAD"/>
<path d="M39.9556 253.826L43.3559 252.335C43.3493 252.365 43.3426 252.395 43.336 252.425L39.9358 253.915C39.9424 253.885 39.949 253.855 39.9556 253.826Z" fill="#A8A8A8"/>
<path d="M39.936 253.915L43.3362 252.425C43.3296 252.454 43.3197 252.484 43.3131 252.514L39.9128 254.004C39.9195 253.974 39.9294 253.945 39.936 253.915Z" fill="#A3A3A3"/>
<path d="M39.9128 254.004L43.313 252.514C43.3031 252.543 43.2932 252.576 43.2833 252.606L39.8831 254.097C39.893 254.067 39.9029 254.034 39.9128 254.004Z" fill="#9E9E9E"/>
<path d="M39.8833 254.097L43.2835 252.606C43.2736 252.639 43.2604 252.672 43.2472 252.702L39.8469 254.192C39.8601 254.159 39.8734 254.13 39.8833 254.097Z" fill="#999999"/>
<path d="M39.8468 254.192L43.247 252.702C43.2338 252.735 43.2173 252.771 43.2008 252.801L39.8005 254.291C39.8171 254.262 39.8336 254.225 39.8468 254.192Z" fill="#949494"/>
<path d="M39.8004 254.292L43.2007 252.801C43.1809 252.838 43.161 252.877 43.1412 252.91L39.741 254.401C39.7641 254.368 39.7839 254.331 39.8004 254.292Z" fill="#8F8F8F"/>
<path d="M39.7411 254.404L43.1413 252.914C43.1149 252.96 43.0851 253.003 43.0521 253.042L39.6519 254.533C39.6849 254.493 39.7146 254.45 39.7411 254.404Z" fill="#8A8A8A"/>
<path d="M39.6551 254.533L43.0553 253.042C42.9331 253.204 42.7778 253.327 42.6026 253.406L39.2024 254.896C39.3775 254.817 39.5295 254.695 39.6551 254.533Z" fill="#858585"/>
<path d="M39.2074 254.884C40.0214 254.528 40.2448 253.243 39.7064 252.014C39.168 250.785 38.0716 250.079 37.2576 250.435C36.4436 250.792 36.2202 252.077 36.7586 253.306C37.297 254.534 38.3934 255.241 39.2074 254.884Z" fill="#929292"/>
<path d="M43.8318 256.274L47.2287 254.784L49.6806 285.036L46.2837 286.523L43.8318 256.274Z" fill="#21BF99"/>
<path d="M36.1194 245.449C39.9756 246.443 43.4287 251.288 43.8319 256.274L46.2838 286.526C46.6869 291.509 43.8881 294.741 40.0318 293.746L27.7592 290.581C23.9029 289.586 20.4498 284.742 20.0466 279.759L17.5948 249.507C17.1916 244.52 19.9905 241.289 23.8467 242.283L36.1194 245.449ZM38.4126 254.942C39.3841 255.194 40.088 254.377 39.9889 253.125C39.8864 251.869 39.0174 250.65 38.0459 250.399C37.0744 250.148 36.3705 250.964 36.4696 252.216C36.5721 253.469 37.4411 254.691 38.4126 254.942Z" fill="#167D65"/>
<path d="M36.1194 245.449L39.5196 243.959C39.5857 243.975 39.6551 243.995 39.7212 244.015L36.3209 245.505C36.2516 245.485 36.1855 245.465 36.1194 245.449Z" fill="#1A9578"/>
<path d="M36.3179 245.505L39.7181 244.015C39.8206 244.045 39.9197 244.078 40.0221 244.111L36.6219 245.601C36.5228 245.568 36.4203 245.535 36.3179 245.505Z" fill="#1B997B"/>
<path d="M36.6218 245.601L40.0221 244.111C40.1212 244.144 40.2203 244.183 40.3195 244.223L36.9192 245.713C36.8201 245.674 36.721 245.637 36.6218 245.601Z" fill="#1B9E7F"/>
<path d="M36.9192 245.713L40.3195 244.223C40.4186 244.263 40.5144 244.302 40.6135 244.348L37.2133 245.839C37.1142 245.793 37.0183 245.753 36.9192 245.713Z" fill="#1CA282"/>
<path d="M37.2134 245.839L40.6136 244.349C40.7128 244.391 40.8086 244.441 40.9044 244.487L37.5042 245.978C37.4083 245.928 37.3092 245.882 37.2134 245.839Z" fill="#1DA686"/>
<path d="M37.5042 245.978L40.9044 244.487C41.0002 244.537 41.0994 244.586 41.1952 244.643L37.7949 246.133C37.6991 246.077 37.6033 246.027 37.5042 245.978Z" fill="#1EAB89"/>
<path d="M37.7949 246.13L41.1952 244.639C41.2943 244.695 41.3934 244.752 41.4926 244.811L38.0923 246.301C37.9932 246.245 37.8941 246.186 37.7949 246.13Z" fill="#1EAF8D"/>
<path d="M38.0891 246.305L41.4894 244.814C41.5885 244.874 41.6876 244.937 41.7835 245.003L38.3832 246.493C38.2874 246.427 38.1882 246.364 38.0891 246.305Z" fill="#1FB490"/>
<path d="M38.3865 246.493L41.7867 245.003C41.8892 245.072 41.9916 245.145 42.094 245.218L38.6938 246.708C38.5913 246.635 38.4889 246.562 38.3865 246.493Z" fill="#20B894"/>
<path d="M38.6938 246.708L42.0941 245.218C42.1999 245.294 42.3023 245.373 42.4047 245.455L39.0045 246.946C38.902 246.863 38.7963 246.784 38.6938 246.708Z" fill="#21BC97"/>
<path d="M39.0044 246.946L42.4047 245.455C42.5137 245.541 42.6227 245.631 42.7285 245.723L39.3282 247.213C39.2192 247.121 39.1134 247.032 39.0044 246.946Z" fill="#21C19B"/>
<path d="M39.3281 247.213L42.7284 245.723C42.844 245.822 42.9564 245.925 43.072 246.03L39.6718 247.521C39.5561 247.415 39.4405 247.313 39.3281 247.213Z" fill="#22C59E"/>
<path d="M39.6687 247.521L43.0689 246.03C43.1879 246.143 43.3069 246.258 43.4258 246.381L40.0256 247.871C39.9066 247.749 39.7877 247.633 39.6687 247.521Z" fill="#23C9A2"/>
<path d="M40.0254 247.868L43.4256 246.377C43.5545 246.506 43.6768 246.642 43.8023 246.781L40.4021 248.271C40.2765 248.132 40.151 248 40.0254 247.868Z" fill="#24CEA5"/>
<path d="M40.3989 248.271L43.7992 246.781C43.938 246.936 44.0767 247.098 44.2089 247.266L40.8087 248.757C40.6765 248.591 40.5377 248.429 40.3989 248.271Z" fill="#24D2A9"/>
<path d="M40.8086 248.757L44.2088 247.266C44.3641 247.461 44.5162 247.663 44.6648 247.868L41.2646 249.358C41.1192 249.153 40.9672 248.952 40.8086 248.757Z" fill="#25D7AC"/>
<path d="M41.2644 249.358L44.6646 247.868C44.9158 248.218 45.1504 248.585 45.3718 248.965L41.9716 250.455C41.7502 250.075 41.5155 249.708 41.2644 249.358Z" fill="#26DBB0"/>
<path d="M41.9717 250.455L45.3719 248.965C45.5272 249.236 45.6759 249.51 45.818 249.791L42.4178 251.281C42.2757 251 42.127 250.723 41.9717 250.455Z" fill="#40DFB9"/>
<path d="M42.4177 251.281L45.818 249.791C45.9832 250.121 46.1352 250.462 46.274 250.805L42.8737 252.296C42.7316 251.952 42.5796 251.612 42.4177 251.281Z" fill="#26DBB0"/>
<path d="M42.8738 252.296L46.274 250.805C46.3599 251.017 46.4393 251.232 46.5153 251.446L43.115 252.937C43.039 252.722 42.9564 252.507 42.8738 252.296Z" fill="#25D7AC"/>
<path d="M43.115 252.937L46.5153 251.446C46.578 251.625 46.6375 251.807 46.6937 251.988L43.2934 253.479C43.2373 253.297 43.1778 253.118 43.115 252.937Z" fill="#24D2A9"/>
<path d="M43.2903 253.482L46.6905 251.992C46.7401 252.154 46.7864 252.319 46.8326 252.484L43.4324 253.974C43.3894 253.809 43.3432 253.644 43.2903 253.482Z" fill="#24CEA5"/>
<path d="M43.4321 253.974L46.8324 252.484C46.872 252.636 46.9117 252.791 46.9447 252.947L43.5445 254.437C43.5114 254.282 43.4718 254.126 43.4321 253.974Z" fill="#23C9A2"/>
<path d="M43.5444 254.437L46.9447 252.947C46.9777 253.095 47.0108 253.247 47.0405 253.396L43.6403 254.886C43.6105 254.734 43.5808 254.586 43.5444 254.437Z" fill="#22C59E"/>
<path d="M43.6404 254.886L47.0406 253.396C47.0671 253.538 47.0935 253.683 47.1166 253.826L43.7164 255.316C43.6932 255.174 43.6701 255.028 43.6404 254.886Z" fill="#21C19B"/>
<path d="M43.7166 255.316L47.1168 253.826C47.1399 253.964 47.1598 254.106 47.1763 254.245L43.776 255.736C43.7595 255.597 43.7397 255.455 43.7166 255.316Z" fill="#21BC97"/>
<path d="M43.7759 255.736L47.1761 254.245C47.1927 254.381 47.2092 254.516 47.2191 254.655L43.8188 256.145C43.8089 256.006 43.7924 255.871 43.7759 255.736Z" fill="#20B894"/>
<path d="M43.8188 256.145L47.2191 254.655C47.2224 254.698 47.2257 254.741 47.229 254.784L43.8288 256.274C43.8288 256.231 43.8255 256.188 43.8188 256.145Z" fill="#1FB490"/>
<path d="M50.8009 267.185C50.8009 267.185 70.7034 320.972 91.4089 270.949C91.4089 270.949 100.552 267.185 102.436 276.058C102.436 276.058 69.6261 344.634 47.0371 281.705L50.8009 267.185Z" fill="#D69A72"/>
<path d="M88.6794 280.697L98.9991 281.566C101.203 281.751 103.143 280.116 103.328 277.908L103.49 275.975C103.916 270.919 100.162 266.478 95.1099 266.052C90.0541 265.626 85.6129 269.379 85.1867 274.432L85.0247 276.365C84.8364 278.576 86.4754 280.512 88.6794 280.697Z" fill="#DFAA42"/>
<path d="M45.5436 281.636C47.2421 281.996 48.924 280.975 49.3899 279.303L51.5709 269.201C51.5709 269.201 52.169 265.821 47.9558 264.03C43.713 262.226 38.1615 261.852 36.0137 261.776C35.4056 261.753 34.834 262.067 34.53 262.596C33.998 263.527 33.4032 265.123 34.216 266.825C34.216 266.825 32.7819 269.009 33.5585 270.543C33.5585 270.543 32.283 273.801 33.456 275.057C33.456 275.057 32.6398 277.7 33.8724 278.615C34.7415 279.26 41.3206 280.743 45.5436 281.636Z" fill="#D69A72"/>
<path d="M51.8221 271.557C51.8221 271.557 50.5301 277.674 48.6499 277.674C46.7663 277.674 51.0687 268.798 51.0687 268.798L51.8221 271.557Z" fill="#C18A6B"/>
<path d="M34.4473 266.66C35.9177 267.073 42.933 269.393 48.3655 268.408L34.4473 266.66Z" fill="#C18A6B"/>
<path d="M33.6345 270.685C34.9662 271.088 41.3107 273.375 46.2376 272.36L33.6345 270.685Z" fill="#C18A6B"/>
<path d="M33.4131 275.099C34.6093 275.496 40.316 277.746 44.7605 276.709L33.4131 275.099Z" fill="#C18A6B"/>
<path d="M123.33 206.05C123.33 206.05 134.102 167.653 116.146 155.773C107.029 138.369 75.2603 135.332 63.3842 140.58C63.3842 140.58 68.3574 140.58 70.2904 142.239C70.2904 142.239 57.0298 141.135 50.4011 146.382C50.4011 146.382 60.8993 145.83 63.6618 148.315C63.6618 148.315 46.535 147.486 41.2842 153.289C41.2842 153.289 47.9129 153.84 48.468 156.329C48.468 156.329 39.3511 157.987 36.8662 151.907C36.8662 151.907 37.6956 161.024 44.6019 164.061L57.3107 164.89L66.2491 171.37C67.6139 172.358 69.2727 172.861 70.9579 172.795L89.0761 172.071C89.0761 172.071 104.27 177.318 106.203 186.161C106.203 186.161 110.347 183.398 107.862 177.873C107.862 177.873 116.701 193.897 113.109 205.498C113.109 205.498 120.015 202.184 119.464 196.659C119.464 196.659 121.674 203.565 119.741 209.368C119.741 209.368 121.952 205.224 121.952 200.251L123.33 206.05Z" fill="#FFC75A"/>
<path d="M179.042 343.498H121.37C117.749 343.498 114.814 340.563 114.814 336.942V284.623C114.814 265.077 130.659 249.232 150.205 249.232C169.75 249.232 185.595 265.077 185.595 284.623V336.942C185.598 340.563 182.661 343.498 179.042 343.498Z" fill="#ED6F27"/>
<path d="M184.24 285.641L200.749 248.327C200.749 248.327 193.965 231.408 179.151 234.779C179.264 234.759 160.27 258.729 160.27 258.729L184.24 285.641Z" fill="#ED6F27"/>
<path d="M200.749 248.327C200.749 248.327 192.835 230.913 179.267 234.759C179.267 234.759 188.764 249.004 200.749 248.327Z" fill="#872B2B"/>
<path d="M199.887 142.207C202.521 141.423 203.834 138.023 202.819 134.612C201.804 131.201 198.846 129.071 196.212 129.855C193.577 130.638 192.264 134.039 193.279 137.45C194.294 140.861 197.253 142.991 199.887 142.207Z" fill="#FFB685"/>
<path d="M196.239 140.018C198.383 139.44 202.094 137.702 201.909 132.636C201.936 132.636 205.594 138.676 200.363 142.044C198.509 142.952 196.939 142.242 195.938 141.475C195.399 141.056 195.581 140.196 196.239 140.018Z" fill="#D69A72"/>
<path d="M192.531 245.267C196.705 235.45 223.936 170.472 223.586 147.919C220.183 147.241 210.157 133.898 205.617 142.718C205.617 152.416 182.628 223.289 178.6 235.638C178.259 236.686 178.623 237.872 179.449 238.407L190.965 245.849C191.533 246.216 192.24 245.954 192.531 245.267Z" fill="#FFB685"/>
<path d="M205.726 142.946L204.758 148.375C204.758 148.375 212.206 158.467 222.872 156.134C222.912 156.064 223.589 147.922 223.589 147.922L205.726 142.946Z" fill="#D69A72"/>
<path d="M201.05 139.82L200.098 130.131C199.903 128.162 200.617 126.202 202.054 124.841C203.436 123.535 205.342 122.399 207.398 123.132C208.29 123.45 209.288 123.251 209.962 122.59C211.525 121.057 214.648 119.253 218.841 123.043C219.198 123.367 219.644 123.585 220.12 123.651C224.062 124.183 230.783 129.949 233.136 132.067C233.678 132.553 233.975 133.25 233.952 133.977C233.836 137.626 233.285 148.983 230.876 152.039C229.121 154.263 226.306 153.094 224.369 151.838C223.351 151.177 222.112 150.866 220.929 151.131C220.708 151.18 220.48 151.157 220.275 151.012C219.631 150.549 216.829 148.867 215.642 148.16C215.305 147.958 214.928 147.843 214.535 147.816C213.266 147.737 210.266 147.43 209.331 146.257C209.169 146.052 208.997 145.854 208.782 145.705C207.84 145.054 206.509 144.664 205.237 144.429C202.973 144.006 201.275 142.113 201.05 139.82Z" fill="#FFB685"/>
<path d="M208.809 123.701C209 123.711 209.166 123.886 209.215 124.137C209.618 126.09 211.205 134.569 210.243 142.424C210.207 142.731 210.002 142.956 209.774 142.952C209.493 142.949 209.281 142.619 209.321 142.245C209.526 140.226 209.926 133.928 208.349 124.441C208.283 124.048 208.515 123.684 208.809 123.701Z" fill="#D69A72"/>
<path d="M219.528 126.288C219.713 126.348 219.836 126.519 219.839 126.721C219.846 128.291 219.72 135.071 217.258 140.722C217.162 140.943 216.925 141.059 216.7 140.996C216.429 140.92 216.29 140.616 216.399 140.345C216.991 138.881 218.61 134.255 218.944 126.721C218.957 126.414 219.248 126.199 219.528 126.288Z" fill="#D69A72"/>
<path d="M227.575 133.023C227.753 133.095 227.852 133.31 227.819 133.558C227.568 135.478 226.332 143.762 222.892 150.628C222.757 150.896 222.496 151.035 222.278 150.956C222.013 150.86 221.921 150.486 222.079 150.156C222.922 148.375 225.331 142.747 226.904 133.545C226.97 133.168 227.304 132.91 227.575 133.023Z" fill="#D69A72"/>
<path d="M196.453 179.126C196.453 179.126 197.345 196.54 195.535 213.274C193.724 230.007 190.898 232.449 188.536 236.339C184.693 242.67 177.909 237.446 177.909 237.446L177.671 220.507L191.916 191.56L196.453 179.126Z" fill="#D69A72"/>
<path d="M151.226 269.584C143.731 269.584 137.658 263.511 137.658 256.016V235.437H164.794V256.016C164.794 263.508 158.717 269.584 151.226 269.584Z" fill="#D69A72"/>
<path d="M104.075 196.2C104.075 196.2 104.98 240.75 149.078 249.117C149.078 249.117 192.723 245.723 194.986 196.2C194.986 185.345 196.116 138.306 157.897 136.271C119.678 134.235 108.146 156.623 108.146 156.623C108.146 156.623 103.85 161.824 102.945 167.025C102.039 172.229 104.075 196.2 104.075 196.2Z" fill="#FFB685"/>
<path d="M125.104 217.569C126.915 217.569 128.382 216.658 128.382 215.534C128.382 214.41 126.915 213.498 125.104 213.498C123.294 213.498 121.826 214.41 121.826 215.534C121.826 216.658 123.294 217.569 125.104 217.569Z" fill="#EFA775"/>
<path d="M180.509 212.596C182.32 212.596 183.787 211.685 183.787 210.561C183.787 209.437 182.32 208.525 180.509 208.525C178.699 208.525 177.231 209.437 177.231 210.561C177.231 211.685 178.699 212.596 180.509 212.596Z" fill="#EFA775"/>
<path d="M126.548 214.89C125.659 214.873 125.025 215.749 125.319 216.588C127.272 222.126 134.67 239.022 152.128 238.374C172.694 237.611 178.507 217.768 179.832 211.519C180.02 210.627 179.244 209.827 178.348 209.996L154.609 214.457C151.609 215.022 148.559 215.276 145.506 215.223L126.548 214.89Z" fill="#333333"/>
<path d="M126.218 215.888L126.039 217.087C125.851 218.343 126.674 219.522 127.89 219.74L144.518 222.738C150.086 223.742 155.815 223.167 161.093 221.079L178.081 214.351C179.085 213.954 179.551 212.765 179.095 211.764L178.689 210.865C178.471 210.379 177.965 210.101 177.45 210.181L151.193 214.285L127.216 214.976C126.717 214.992 126.294 215.375 126.218 215.888Z" fill="white"/>
<path d="M131.806 228.487C131.806 228.487 139.013 239.055 152.581 238.377C166.149 237.7 172.067 228.487 172.067 228.487C172.067 228.487 166.829 225.034 151.903 225.715C136.977 226.389 131.806 228.487 131.806 228.487Z" fill="#BA3636"/>
<path d="M117.91 203.899C118.753 204.157 119.668 203.866 120.204 203.165L123.458 198.909C125.98 195.612 130.437 194.478 134.228 196.173L139.174 198.387C139.756 198.648 140.43 198.582 140.952 198.219C142.056 197.446 141.96 195.78 140.774 195.139L136.755 192.975C130.86 189.799 123.525 191.468 119.579 196.877L116.83 200.648C115.974 201.814 116.529 203.473 117.91 203.899Z" fill="#333333"/>
<path d="M161.615 198.942C162.342 199.256 163.188 199.084 163.736 198.51L166.023 196.111C169.208 192.77 174.271 192.059 178.253 194.389L181.157 196.091C181.653 196.381 182.261 196.388 182.763 196.114C183.827 195.529 183.903 194.032 182.902 193.345L179.921 191.293C174.73 187.721 167.702 188.53 163.459 193.186L160.961 195.929C160.092 196.887 160.422 198.427 161.615 198.942Z" fill="#333333"/>
<path d="M115.092 182.87C116.969 180.408 121.321 175.531 127.259 174.024C127.877 173.869 128.326 173.37 128.379 172.778C128.468 171.797 127.457 171.07 126.449 171.397C122.467 172.682 114.051 175.973 111.9 181.34C111.612 182.057 111.863 182.853 112.521 183.293C113.34 183.838 114.497 183.65 115.092 182.87Z" fill="#333333"/>
<path d="M179.865 174.956C177.317 173.191 171.677 169.893 165.563 170.293C164.929 170.336 164.344 169.999 164.113 169.454C163.726 168.548 164.463 167.544 165.521 167.544C169.704 167.541 178.725 168.073 182.426 172.517C182.922 173.112 182.928 173.948 182.436 174.566C181.828 175.336 180.671 175.511 179.865 174.956Z" fill="#333333"/>
<path d="M103.282 185.232C103.282 185.232 97.4033 171.889 102.604 162.168C105.255 157.211 108.083 153.487 110.218 151.028C112.128 148.828 114.553 147.139 117.276 146.101L119.074 145.417C119.074 145.417 126.122 131.635 144.438 128.922C144.438 128.922 138.56 132.315 137.655 135.481C137.655 135.481 152.581 126.437 164.113 128.922C164.113 128.922 155.974 132.051 156.539 136.142C156.652 136.158 187.406 128.469 197.356 158.774C197.356 158.774 189.666 152.443 184.693 150.632C184.693 150.632 194.19 158.546 195.095 172.567C195.095 172.567 186.051 159.904 177.232 160.353C168.412 160.803 158.234 165.102 158.234 165.102L148.738 167.59L137.658 165.555L124.129 164.547C119.328 164.19 114.814 166.843 112.775 171.205C109.6 178.009 105.757 187.681 107.581 191.332L103.282 185.232Z" fill="#4F4F4F"/>
<path d="M200.749 248.327L185.598 282.574V319.56C185.598 321.933 186.048 343.498 183.672 343.498L174.529 337.497L180.394 281.342L200.749 248.327Z" fill="#D0654F"/>
<path d="M166.168 332.646H138.996C134.135 332.646 130.193 328.704 130.193 323.843V281.553C130.193 276.692 134.135 272.75 138.996 272.75H166.168C171.029 272.75 174.971 276.692 174.971 281.553V323.846C174.968 328.707 171.029 332.646 166.168 332.646Z" fill="#F8B500"/>
<path d="M136.379 283.156C138.06 283.156 139.422 281.793 139.422 280.112C139.422 278.432 138.06 277.069 136.379 277.069C134.698 277.069 133.335 278.432 133.335 280.112C133.335 281.793 134.698 283.156 136.379 283.156Z" fill="white"/>
<path d="M129.896 295.59H147.525C147.525 295.59 151.05 298.303 148.338 303.184C149.963 303.997 148.879 308.064 147.254 309.423C148.608 310.506 148.879 314.303 146.712 315.932C148.338 317.016 147.525 322.442 145.086 323.526C143.421 324.266 135.824 323.618 131.164 323.129C128.798 322.881 126.786 321.302 125.986 319.065C123.683 312.644 120.422 299.622 129.896 295.59Z" fill="#FFB685"/>
<path d="M148.014 303.223C146.034 303.64 136.524 306.217 129.671 303.623L148.014 303.223Z" fill="#D69A72"/>
<path d="M147.336 309.783C145.357 310.199 136.524 313.005 128.993 310.183L147.336 309.783Z" fill="#D69A72"/>
<path d="M146.655 315.886C144.676 316.302 135.843 318.88 128.312 316.286L146.655 315.886Z" fill="#D69A72"/>
</svg>
